<?xml version="1.0" standalone="no"?>
<!DOCTYPE svg PUBLIC "-//W3C//DTD SVG 20010904//EN"
 "http://www.w3.org/TR/2001/REC-SVG-20010904/DTD/svg10.dtd">
<svg version="1.0" xmlns="http://www.w3.org/2000/svg"
 width="300.000000pt" height="300.000000pt" viewBox="0 0 300.000000 300.000000"
 preserveAspectRatio="xMidYMid meet">
<metadata>
Created by potrace 1.11, written by Peter Selinger 2001-2013
</metadata>
<g transform="translate(0.000000,300.000000) scale(0.100000,-0.100000)"
fill="#000000" stroke="none">
<path d="M2914 2522 c-5 -4 -57 -88 -113 -187 -57 -99 -109 -189 -116 -200
-15 -23 -123 -66 -420 -163 -295 -98 -418 -150 -607 -260 -73 -42 -219 -147
-258 -185 l-35 -35 -120 122 c-66 68 -138 138 -160 156 -131 107 -370 237
-599 325 -122 48 -330 108 -402 118 -47 5 -43 13 -65 -113 -11 -61 -13 -303
-4 -365 43 -291 117 -499 242 -689 213 -320 582 -542 968 -581 84 -9 236 -8
314 1 59 7 65 8 151 25 65 12 224 59 219 64 -2 1 -29 6 -60 9 -31 4 -65 8 -75
10 -11 2 -39 7 -64 11 -66 10 -212 52 -288 82 -119 47 -299 147 -387 215 -228
176 -433 405 -587 655 -50 82 -96 168 -71 133 231 -321 538 -618 825 -798 37
-23 70 -42 73 -42 3 0 22 -10 43 -23 46 -29 185 -87 272 -115 127 -41 229 -56
375 -57 l140 0 81 49 c168 100 297 216 409 366 147 199 197 360 198 640 1 162
-4 260 -13 260 -3 0 -42 -37 -86 -82 -264 -272 -630 -521 -992 -676 -59 -25
-82 -28 -82 -9 0 6 39 32 88 56 274 140 605 380 837 607 144 141 233 260 372
500 80 137 91 162 71 168 -36 11 -64 14 -74 8z"/>
</g>
</svg>
